<svg width="26" height="26" viewBox="0 0 26 26" fill="none" xmlns="http://www.w3.org/2000/svg">
<path d="M13 2.5C15.0767 2.5 17.1068 3.11581 18.8335 4.26957C20.5602 5.42332 21.906 7.0632 22.7007 8.98182C23.4955 10.9004 23.7034 13.0116 23.2982 15.0484C22.8931 17.0852 21.8931 18.9562 20.4246 20.4246C18.9562 21.8931 17.0853 22.8931 15.0484 23.2982C13.0116 23.7034 10.9004 23.4955 8.98183 22.7007C7.0632 21.906 5.42333 20.5602 4.26957 18.8335C3.11582 17.1068 2.5 15.0767 2.5 13C2.5 10.2152 3.60625 7.54451 5.57538 5.57538C7.54451 3.60625 10.2152 2.5 13 2.5ZM13 0.75C10.5772 0.75 8.20877 1.46845 6.19427 2.8145C4.17976 4.16054 2.60965 6.07373 1.68248 8.31213C0.755304 10.5505 0.512713 13.0136 0.985382 15.3899C1.45805 17.7661 2.62475 19.9489 4.33794 21.6621C6.05114 23.3752 8.23388 24.542 10.6101 25.0146C12.9864 25.4873 15.4495 25.2447 17.6879 24.3175C19.9263 23.3904 21.8395 21.8202 23.1855 19.8057C24.5316 17.7912 25.25 15.4228 25.25 13C25.25 9.7511 23.9594 6.63526 21.6621 4.33794C19.3647 2.04062 16.2489 0.75 13 0.75Z" fill="white"/>
</svg>
