<svg width="13" height="14" viewBox="0 0 13 14" fill="none" xmlns="http://www.w3.org/2000/svg">
<path d="M1.5 13.125C1.34295 13.125 1.18881 13.0826 1.05375 13.0025C0.923132 12.9251 0.814917 12.815 0.739744 12.683C0.66457 12.5511 0.625026 12.4019 0.625 12.25V1.75001C0.625026 1.59816 0.66457 1.44893 0.739744 1.31699C0.814917 1.18505 0.923132 1.07495 1.05375 0.997508C1.18677 0.92071 1.33766 0.88028 1.49125 0.88028C1.64484 0.88028 1.79573 0.92071 1.92875 0.997508L11.5537 6.24751C11.6927 6.32248 11.8087 6.43364 11.8896 6.56919C11.9704 6.70475 12.0131 6.85966 12.0131 7.01751C12.0131 7.17536 11.9704 7.33027 11.8896 7.46582C11.8087 7.60138 11.6927 7.71253 11.5537 7.78751L1.92875 13.0375C1.79555 13.1025 1.64802 13.1326 1.5 13.125ZM2.375 3.22001V10.78L9.29625 7.00001L2.375 3.22001Z" fill="white"/>
</svg>
